<svg xmlns="http://www.w3.org/2000/svg" width="1024" height="1024" viewBox="0 0 1024 1024">
  <defs>
    <linearGradient id="bg" x1="0" y1="0" x2="0" y2="1">
      <stop offset="0" stop-color="#1a1a1a"/>
      <stop offset="1" stop-color="#000000"/>
    </linearGradient>
  </defs>
  <rect width="1024" height="1024" rx="224" fill="url(#bg)"/>
  <g transform="translate(232,300)">
    <rect x="0"   y="0"   width="112" height="112" fill="#FFD300"/>
    <rect x="112" y="0"   width="112" height="112" fill="#FFD300"/>
    <rect x="336" y="0"   width="112" height="112" fill="#FFD300"/>
    <rect x="448" y="0"   width="112" height="112" fill="#FFD300"/>

    <rect x="0"   y="112" width="112" height="112" fill="#FFAF00"/>
    <rect x="112" y="112" width="112" height="112" fill="#FF8205"/>
    <rect x="336" y="112" width="112" height="112" fill="#FF8205"/>
    <rect x="448" y="112" width="112" height="112" fill="#FA500F"/>

    <rect x="0"   y="224" width="112" height="112" fill="#FA500F"/>
    <rect x="112" y="224" width="112" height="112" fill="#FA500F"/>
    <rect x="224" y="224" width="112" height="112" fill="#E10500"/>
    <rect x="336" y="224" width="112" height="112" fill="#E10500"/>
    <rect x="448" y="224" width="112" height="112" fill="#E10500"/>

    <rect x="0"   y="336" width="112" height="112" fill="#E10500"/>
    <rect x="448" y="336" width="112" height="112" fill="#E10500"/>
  </g>
</svg>
